<mxfile host="app.diagrams.net" modified="2023-05-24T02:11:58.430Z" agent="Mozilla/5.0 (X11; Linux x86_64) AppleWebKit/537.36 (KHTML, like Gecko) Chrome/107.0.0.0 Safari/537.36" version="21.3.2" etag="4dLK6JDYVuhU1akiTXzU" type="github">
  <diagram name="第 1 页" id="z4SdgvEBRybkMsO1cB3t">
    <mxGraphModel>
      <root>
        <mxCell id="0" />
        <mxCell id="1" parent="0" />
      </root>
    </mxGraphModel>
  </diagram>
</mxfile>
